<svg width="15" height="10" fill="none" xmlns="http://www.w3.org/2000/svg"><path d="M.43 10a.328.328 0 0 1-.221-.078.328.328 0 0 1-.078-.221V1.212c0-.095.026-.169.078-.221A.3.3 0 0 1 .43.9h3.302c.98 0 1.75.238 2.314.715.563.477.845 1.166.845 2.067 0 .901-.282 1.59-.845 2.067-.555.468-1.326.702-2.314.702H1.431v3.25a.3.3 0 0 1-.091.221.328.328 0 0 1-.221.078H.43Zm3.237-4.641c.633 0 1.11-.143 1.43-.429.33-.286.494-.702.494-1.248s-.16-.962-.481-1.248c-.32-.295-.802-.442-1.443-.442H1.418v3.367h2.249ZM14.737.9c.07 0 .13.026.183.078a.25.25 0 0 1 .078.182c0 .07-.013.13-.04.182l-2.651 6.006c-.303.685-.577 1.209-.82 1.573a2.451 2.451 0 0 1-.831.806c-.32.182-.737.273-1.248.273h-.52a.328.328 0 0 1-.221-.078.328.328 0 0 1-.078-.221v-.546c0-.087.026-.16.078-.221a.3.3 0 0 1 .22-.091h.456c.346 0 .632-.104.858-.312.234-.217.472-.576.715-1.079L7.549 1.316a.324.324 0 0 1-.04-.143c0-.07.027-.13.079-.182A.273.273 0 0 1 7.783.9h.74c.13 0 .235.074.313.221l2.704 4.927 2.17-4.927a.29.29 0 0 1 .13-.156.33.33 0 0 1 .196-.065h.702Z" fill="#A6A6A6"/></svg>